<svg xmlns="http://www.w3.org/2000/svg" viewBox="150 140 720 720" aria-hidden="true" focusable="false">
  <defs>
    <g id="star">
      <path d="M0,-20 L4,-6 L20,0 L4,6 L0,20 L-4,6 L-20,0 L-4,-6 Z" fill="#ffffff"/>
      <path d="M-12,-12 L-4,-4 M12,-12 L4,-4 M12,12 L4,4 M-12,12 L-4,4" stroke="#ffffff" stroke-width="2" stroke-linecap="round" fill="none"/>
    </g>
    <g id="anchorStar" fill="#ffffff" stroke="#ffffff" stroke-linecap="round">
      <path d="M0,-48 L5,-10 L50,0 L5,10 L0,48 L-5,10 L-50,0 L-5,-10 Z"/>
      <path d="M-32,-32 L-10,-10 M32,-32 L10,-10 M32,32 L10,10 M-32,32 L-10,10" fill="none" stroke-width="3.2"/>
    </g>
  </defs>
  <path d="M 735 745 A 331 331 0 1 1 805 635" fill="none" stroke="#ffffff" stroke-width="8" stroke-linecap="round"/>
  <g fill="none" stroke="#ffffff" stroke-linecap="round" stroke-width="10">
    <line x1="447" y1="267" x2="610" y2="396"/>
    <line x1="656" y1="452" x2="742" y2="640"/>
    <line x1="282" y1="410" x2="338" y2="449"/>
    <line x1="386" y1="477" x2="715" y2="660"/>
  </g>
  <g color="#ffffff">
    <use href="#star" transform="translate(411 238) scale(1.18)"/>
    <use href="#star" transform="translate(246 394) scale(1.05)"/>
    <use href="#star" transform="translate(358 459) scale(0.62)"/>
    <use href="#star" transform="translate(642 421) scale(0.82)"/>
    <use href="#anchorStar" transform="translate(763 691) scale(1.30)"/>
  </g>
</svg>
